<svg width="16" height="17" viewBox="0 0 16 17" fill="none" xmlns="http://www.w3.org/2000/svg">
<path d="M6.79217 2.70677L1.55452 7.95682C1.41316 8.09842 1.33317 8.29464 1.33317 8.49995C1.33317 8.70527 1.41316 8.9012 1.55452 9.04308L6.79217 14.2931C7.07768 14.5783 7.52961 14.5675 7.8022 14.2677C8.07468 13.9709 8.06444 13.4943 7.77803 13.2071L3.82896 9.25082H13.952C14.3463 9.25082 14.6665 8.91456 14.6665 8.5005C14.6665 8.08643 14.3463 7.7508 13.952 7.7508H3.83082L7.77988 3.79452C8.06587 3.50678 8.0748 3.03022 7.80399 2.7324C7.5302 2.4324 7.10464 2.42177 6.79217 2.70677Z" fill="#007AFF"/>
</svg>
