<svg width="24" height="24" viewBox="0 0 24 24" fill="none" xmlns="http://www.w3.org/2000/svg">
<g clip-path="url(#clip0_2_2480)">
<path d="M24 0H0V24H24V0Z" fill="#0027D9"/>
<path d="M16.5406 6.48657H7.45951C7.02943 6.48657 6.61696 6.65787 6.31285 6.96279C6.00874 7.2677 5.83789 7.68126 5.83789 8.11247V18.8109L9.03248 16.5086H16.5406C16.9707 16.5086 17.3831 16.3373 17.6872 16.0324C17.9914 15.7275 18.1622 15.3139 18.1622 14.8827V8.11898C18.1631 7.90491 18.1217 7.69279 18.0406 7.49477C17.9595 7.29676 17.8402 7.11675 17.6895 6.96508C17.5389 6.81342 17.3598 6.69307 17.1627 6.61096C16.9655 6.52884 16.7541 6.48657 16.5406 6.48657ZM9.16221 12.3024C9.01019 12.3024 8.86158 12.2572 8.73517 12.1725C8.60877 12.0879 8.51025 11.9675 8.45207 11.8267C8.3939 11.6858 8.37867 11.5309 8.40833 11.3814C8.43799 11.2319 8.5112 11.0946 8.6187 10.9868C8.72619 10.879 8.86315 10.8056 9.01226 10.7759C9.16136 10.7461 9.31591 10.7614 9.45636 10.8197C9.59681 10.8781 9.71686 10.9768 9.80132 11.1036C9.88578 11.2303 9.93086 11.3793 9.93086 11.5317C9.93086 11.7361 9.84988 11.9322 9.70573 12.0767C9.56158 12.2212 9.36607 12.3024 9.16221 12.3024ZM12 12.3024C11.848 12.3024 11.6994 12.2572 11.573 12.1725C11.4466 12.0879 11.3481 11.9675 11.2899 11.8267C11.2317 11.6858 11.2165 11.5309 11.2462 11.3814C11.2758 11.2319 11.349 11.0946 11.4565 10.9868C11.564 10.879 11.701 10.8056 11.8501 10.7759C11.9992 10.7461 12.1537 10.7614 12.2942 10.8197C12.4346 10.8781 12.5547 10.9768 12.6392 11.1036C12.7236 11.2303 12.7687 11.3793 12.7687 11.5317C12.7687 11.7361 12.6877 11.9322 12.5436 12.0767C12.3994 12.2212 12.2039 12.3024 12 12.3024ZM14.8379 12.3024C14.6859 12.3024 14.5372 12.2572 14.4108 12.1725C14.2844 12.0879 14.1859 11.9675 14.1277 11.8267C14.0696 11.6858 14.0543 11.5309 14.084 11.3814C14.1137 11.2319 14.1869 11.0946 14.2944 10.9868C14.4019 10.879 14.5388 10.8056 14.6879 10.7759C14.837 10.7461 14.9916 10.7614 15.132 10.8197C15.2725 10.8781 15.3925 10.9768 15.477 11.1036C15.5615 11.2303 15.6065 11.3793 15.6065 11.5317C15.6065 11.7361 15.5255 11.9322 15.3814 12.0767C15.2372 12.2212 15.0417 12.3024 14.8379 12.3024Z" fill="white"/>
</g>
<defs>
<clipPath id="clip0_2_2480">
<rect width="24" height="24" rx="7" fill="white"/>
</clipPath>
</defs>
</svg>
