<svg width="120" height="120" viewBox="0 0 120 120" fill="none" xmlns="http://www.w3.org/2000/svg">
<g clip-path="url(#clip0_2_2407)">
<rect width="120" height="120" rx="60" fill="#039BE5"/>
<path d="M26.9255 57.3246C33.5613 53.6835 40.9687 50.6446 47.8899 47.5901C59.7969 42.5872 71.7512 37.671 83.8261 33.094C86.1755 32.3142 90.3967 31.5515 90.8107 35.0197C90.5841 39.9288 89.6517 44.8092 89.0121 49.6896C87.3889 60.4221 85.5128 71.1178 83.6833 81.8149C83.053 85.3781 78.572 87.2226 75.7049 84.9424C68.8145 80.3061 61.8712 75.715 55.0688 70.9713C52.8405 68.7158 54.9068 65.4769 56.8969 63.8662C62.572 58.295 68.5905 53.5616 73.9691 47.7025C75.4199 44.2124 71.1332 47.1538 69.7192 48.055C61.9499 53.3882 54.3708 59.0471 46.1796 63.7343C41.9955 66.0287 37.1189 64.0679 32.9367 62.7876C29.1868 61.2411 23.6918 59.683 26.9251 57.3248L26.9255 57.3246Z" fill="white"/>
</g>
<defs>
<clipPath id="clip0_2_2407">
<rect width="120" height="120" fill="white"/>
</clipPath>
</defs>
</svg>
