<svg width="24" height="24" viewBox="0 0 24 24" fill="none" xmlns="http://www.w3.org/2000/svg">
<g clip-path="url(#clip0_2_2474)">
<rect width="24" height="24" fill="#039BE5"/>
<path d="M4.6352 11.85C5.96237 11.1218 7.44385 10.514 8.82808 9.90311C11.2095 8.90253 13.6003 7.91928 16.0153 7.00389C16.4852 6.84792 17.3295 6.69539 17.4122 7.38902C17.3669 8.37085 17.1804 9.34693 17.0525 10.323C16.7279 12.4695 16.3527 14.6086 15.9868 16.7481C15.8607 17.4607 14.9645 17.8296 14.3911 17.3736C13.013 16.4463 11.6243 15.5281 10.2639 14.5793C9.81821 14.1282 10.2315 13.4805 10.6295 13.1583C11.7645 12.0441 12.9682 11.0974 14.0439 9.92559C14.3341 9.22757 13.4767 9.81584 13.194 9.99608C11.6401 11.0627 10.1243 12.1945 8.48602 13.1319C7.6492 13.5908 6.67387 13.1987 5.83744 12.9426C5.08746 12.6333 3.98855 12.3216 4.6352 11.85Z" fill="white"/>
</g>
<defs>
<clipPath id="clip0_2_2474">
<rect width="24" height="24" rx="7" fill="white"/>
</clipPath>
</defs>
</svg>
