<svg width="24" height="24" viewBox="0 0 24 24" fill="none" xmlns="http://www.w3.org/2000/svg">
<g clip-path="url(#clip0_2_2477)">
<path d="M24 0H0V24H24V0Z" fill="#7F4DA0"/>
<path d="M15.205 10.5663C15.1517 10.148 15.0188 9.81957 14.7827 9.52866C14.4762 9.15406 14.0845 8.92974 13.5045 8.79667C13.1265 8.70798 12.9738 8.71816 12.8371 8.83893C12.7098 8.95207 12.6849 9.1789 12.7822 9.32578C12.8507 9.43239 12.9296 9.47058 13.1492 9.51226C13.4416 9.56429 13.6436 9.63181 13.8274 9.73346C14.2176 9.95132 14.3992 10.2923 14.4187 10.8442C14.4278 11.1034 14.4509 11.183 14.5445 11.2749C14.718 11.443 15.0267 11.4103 15.1577 11.2092C15.2057 11.1334 15.213 11.1005 15.2181 10.9245C15.2215 10.8155 15.2166 10.6534 15.205 10.5663Z" fill="white"/>
<path d="M16.733 11.0385C16.656 9.75696 16.1377 8.72592 15.2102 8.00051C14.6876 7.5929 14.0559 7.31262 13.3635 7.17631C13.1098 7.12756 12.6428 7.08804 12.5627 7.11065C12.4871 7.13158 12.3802 7.21075 12.3325 7.28234C12.2821 7.35998 12.2708 7.53333 12.3137 7.6336C12.3831 7.80123 12.5122 7.86044 12.8738 7.89104C13.4311 7.9382 14.006 8.12758 14.4404 8.40795C14.9363 8.72718 15.3305 9.1638 15.5855 9.67688C15.8058 10.1177 15.9413 10.753 15.9376 11.3219C15.9363 11.5277 15.9692 11.6439 16.0547 11.7288C16.1839 11.8594 16.3721 11.888 16.5383 11.8012C16.7224 11.7076 16.7655 11.5432 16.733 11.0385Z" fill="white"/>
<path d="M18.4378 15.9291C18.4116 15.8557 18.3505 15.7426 18.3068 15.6776C18.0316 15.2796 16.5529 14.1712 15.8146 13.8088C15.3931 13.6014 15.0807 13.5322 14.8492 13.5972C14.6002 13.6642 14.4692 13.7752 14.052 14.2718C13.8838 14.4708 13.7113 14.6573 13.6654 14.6866C13.5518 14.7621 13.329 14.8228 13.1718 14.8228C12.807 14.8207 12.1452 14.5945 11.6363 14.2969C11.241 14.0665 10.7343 13.6538 10.3454 13.2452C9.88675 12.7654 9.57445 12.3422 9.32761 11.8645C9.00874 11.2506 8.92793 10.8756 9.06114 10.6011C9.09391 10.532 9.1376 10.4587 9.15723 10.4356C9.17691 10.4147 9.38223 10.2533 9.60936 10.0773C10.055 9.73795 10.127 9.66043 10.21 9.42787C10.3149 9.13244 10.2865 8.83075 10.1248 8.52697C10.0003 8.29649 9.6749 7.79367 9.43902 7.46893C9.12668 7.04154 8.34911 6.12806 8.19401 6.00442C7.91444 5.78654 7.55627 5.74881 7.16089 5.8955C6.74375 6.05054 5.96179 6.65393 5.62761 7.07506C5.32619 7.45636 5.21047 7.72662 5.19297 8.0828C5.1777 8.3761 5.2039 8.49762 5.36553 8.87266C6.63017 11.8142 8.51727 14.1629 11.1099 16.0275C12.4641 17.0017 13.8685 17.7434 15.3254 18.2505C16.175 18.5459 16.5441 18.5605 16.9788 18.3175C17.1622 18.2127 17.6166 17.7665 17.8699 17.4417C18.2893 16.9012 18.4444 16.6519 18.488 16.4528C18.5186 16.3167 18.4946 16.0799 18.4378 15.9291Z" fill="white"/>
<path d="M18.2889 11.3324C18.2612 10.6075 18.135 10.0129 17.8719 9.35002C17.6121 8.69793 17.3491 8.27241 16.8526 7.69687C16.3831 7.15724 16.0185 6.84913 15.4402 6.50615C14.6334 6.02828 13.6515 5.71205 12.5511 5.57906C12.1758 5.53258 12.0909 5.5359 11.9758 5.61019C11.7527 5.75093 11.7556 6.10198 11.9794 6.24061C12.0535 6.28471 12.1193 6.30078 12.4194 6.33878C12.8802 6.39878 13.1765 6.45532 13.5281 6.5481C14.9068 6.9126 15.967 7.65765 16.6759 8.76365C17.269 9.6855 17.5153 10.6074 17.4803 11.7849C17.4681 12.1829 17.477 12.253 17.5399 12.3486C17.6604 12.5269 17.9781 12.5622 18.1411 12.4142C18.2425 12.3241 18.2617 12.2564 18.2816 11.9157C18.2912 11.738 18.2933 11.4756 18.2889 11.3324Z" fill="white"/>
</g>
<defs>
<clipPath id="clip0_2_2477">
<rect width="24" height="24" rx="7" fill="white"/>
</clipPath>
</defs>
</svg>
