<svg width="24" height="24" viewBox="0 0 24 24" fill="none" xmlns="http://www.w3.org/2000/svg">
<g clip-path="url(#clip0_2_2471)">
<path d="M24 0H0V24H24V0Z" fill="#1BD741"/>
<path d="M3.56763 20.4325L4.74875 16.2421C3.98922 14.9532 3.58932 13.4866 3.58932 11.9801C3.58932 7.34145 7.36724 3.56763 12.0109 3.56763C16.6546 3.56763 20.4325 7.34145 20.4325 11.9801C20.4325 16.6188 16.6546 20.3926 12.0109 20.3926C10.564 20.3926 9.14715 20.0226 7.89375 19.3201L3.56763 20.4325ZM8.11492 17.7896L8.3727 17.9469C9.46551 18.6133 10.7236 18.9656 12.0109 18.9656C15.8669 18.9656 19.0039 15.8319 19.0039 11.9801C19.0039 8.12833 15.8669 4.99466 12.0109 4.99466C8.15497 4.99466 5.0179 8.12833 5.0179 11.9801C5.0179 13.3222 5.39976 14.6255 6.1221 15.7491L6.29569 16.0191L5.61553 18.4323L8.11492 17.7896Z" fill="white"/>
<path d="M9.64531 8.06444L9.09885 8.03468C8.92721 8.02533 8.75885 8.08262 8.62911 8.1952C8.36419 8.425 7.94058 8.86928 7.81048 9.44824C7.61645 10.3115 7.9163 11.3686 8.69234 12.4256C9.46838 13.4827 10.9146 15.174 13.4719 15.8963C14.296 16.1291 14.9442 15.9722 15.4444 15.6526C15.8406 15.3995 16.1136 14.9932 16.212 14.5339L16.2993 14.1268C16.327 13.9974 16.2612 13.8661 16.1409 13.8107L14.2941 12.9604C14.1742 12.9052 14.032 12.9401 13.9514 13.0445L13.2263 13.9834C13.1716 14.0543 13.0778 14.0824 12.9932 14.0527C12.4967 13.8784 10.8335 13.1826 9.92087 11.4266C9.88129 11.3504 9.89113 11.258 9.94727 11.193L10.6402 10.3923C10.711 10.3105 10.7289 10.1956 10.6863 10.0962L9.89023 8.23573C9.84785 8.13669 9.75288 8.0703 9.64531 8.06444Z" fill="white"/>
</g>
<defs>
<clipPath id="clip0_2_2471">
<rect width="24" height="24" rx="7" fill="white"/>
</clipPath>
</defs>
</svg>
